<?xml version="1.0" standalone="no"?>
<!DOCTYPE svg PUBLIC "-//W3C//DTD SVG 20010904//EN"
 "http://www.w3.org/TR/2001/REC-SVG-20010904/DTD/svg10.dtd">
<svg version="1.0" xmlns="http://www.w3.org/2000/svg"
 width="16.000000pt" height="16.000000pt" viewBox="0 0 16.000000 16.000000"
 preserveAspectRatio="xMidYMid meet">
<metadata>
Created by potrace 1.11, written by Peter Selinger 2001-2013
</metadata>
<g transform="translate(0.000000,16.000000) scale(0.002000,-0.002000)"
fill="#000000" stroke="none">
<path d="M2235 6578 c-47 -27 -41 -43 32 -99 81 -61 133 -114 133 -136 0 -10
-6 -27 -14 -38 -43 -62 -57 -100 -57 -154 0 -58 2 -69 15 -110 18 -54 103
-151 132 -151 7 0 22 -9 35 -20 l24 -20 -65 2 c-36 0 -87 7 -115 15 -27 7 -50
13 -50 13 0 -5 -60 23 -81 37 -15 9 -32 18 -38 19 -7 1 -32 11 -57 22 -74 34
-158 48 -295 51 -202 4 -302 -26 -548 -161 -61 -34 -126 -68 -144 -77 -17 -8
-32 -19 -32 -23 0 -4 -16 -10 -35 -14 -19 -3 -35 -10 -35 -16 0 -5 -5 -6 -10
-3 -6 4 -36 -20 -68 -53 -63 -65 -84 -112 -87 -198 -3 -52 -18 -94 -35 -94
-29 0 -89 -103 -90 -152 0 -34 20 -36 60 -8 18 13 49 21 91 24 57 3 65 1 87
-23 14 -14 22 -19 18 -11 -5 10 -2 9 7 -2 30 -37 129 -67 231 -69 67 -2 118
-20 169 -62 55 -46 77 -89 79 -162 2 -42 -2 -56 -22 -77 -24 -24 -115 -95
-168 -130 -14 -9 -51 -44 -83 -77 -70 -72 -93 -135 -84 -228 4 -49 1 -72 -20
-127 -29 -77 -32 -118 -9 -141 13 -13 19 -13 32 -3 8 7 17 12 19 11 10 -8 34
0 67 22 20 13 36 22 36 19 0 -3 7 2 16 11 18 18 74 15 158 -8 50 -14 199 -16
246 -3 14 4 30 8 35 9 6 2 16 6 23 10 6 5 12 6 12 2 0 -12 103 47 140 81 47
42 107 54 210 41 133 -16 143 -47 45 -142 -36 -34 -65 -68 -65 -74 0 -6 -7
-11 -16 -11 -8 0 -13 -4 -10 -9 3 -5 -1 -12 -10 -15 -8 -3 -13 -10 -9 -15 3
-6 -4 -15 -15 -21 -11 -6 -18 -15 -15 -21 4 -5 1 -9 -4 -9 -6 0 -11 -7 -11
-15 0 -9 -7 -18 -15 -21 -8 -4 -13 -10 -10 -14 3 -4 -2 -11 -11 -14 -9 -3 -14
-13 -10 -21 3 -8 -1 -18 -9 -22 -7 -5 -14 -12 -15 -18 -2 -5 -7 -21 -13 -35
-6 -14 -10 -28 -9 -32 1 -5 -2 -8 -6 -8 -4 0 -8 -8 -9 -17 0 -10 -4 -29 -7
-43 -22 -82 -26 -128 -15 -185 4 -22 10 -57 13 -78 3 -21 13 -52 22 -68 8 -17
16 -44 16 -60 1 -16 4 -29 7 -29 3 0 6 -40 6 -90 0 -77 3 -91 20 -105 11 -9
13 -13 5 -9 -13 7 -13 6 -1 -10 14 -16 17 -14 38 29 12 26 27 53 34 61 6 8 8
14 3 14 -5 0 -3 4 4 9 7 4 14 17 15 29 0 11 5 18 9 16 4 -3 8 0 8 6 0 6 5 8
10 5 6 -3 10 -1 10 5 0 6 5 8 10 5 6 -3 10 -1 10 5 0 6 4 9 9 5 5 -3 17 2 25
11 9 8 16 12 16 8 0 -4 16 10 35 30 19 21 35 34 35 29 0 -4 4 -2 9 6 5 7 28
15 53 18 39 5 45 2 57 -21 8 -14 17 -24 20 -21 4 2 17 -10 30 -26 13 -16 27
-27 32 -24 4 3 13 -3 18 -13 7 -14 18 -18 35 -15 23 5 24 3 25 -51 0 -34 8
-70 19 -92 l19 -37 7 26 c8 32 34 47 93 54 l46 5 -7 -64 c-22 -208 -26 -403
-12 -533 9 -85 48 -253 74 -320 26 -70 33 -90 32 -93 0 -1 22 -45 49 -97 63
-119 190 -302 256 -367 98 -97 348 -270 483 -333 73 -35 91 -43 145 -64 12 -5
40 -16 62 -24 82 -33 210 -64 335 -83 89 -13 392 -4 496 15 27 5 56 9 64 10
68 4 126 14 185 31 39 12 77 22 85 23 8 1 17 5 20 9 3 4 19 10 35 13 17 3 35
7 41 8 7 2 20 9 30 17 11 9 15 10 10 2 -4 -6 9 -3 28 9 20 12 36 17 36 12 0
-4 5 0 11 9 5 10 19 18 29 18 11 0 29 9 40 20 11 11 20 17 20 14 0 -3 7 1 15
8 27 25 40 33 88 58 26 14 47 29 47 33 0 5 4 6 9 3 4 -3 19 6 31 19 13 14 29
25 36 25 6 0 15 7 18 16 4 9 9 14 12 11 3 -3 16 3 28 14 11 10 55 47 96 81 74
63 146 133 349 343 119 124 182 170 312 226 82 36 97 39 187 40 53 0 128 -5
166 -11 38 -7 91 -10 118 -7 45 6 118 40 126 59 2 4 10 8 17 8 30 0 36 84 10
145 -23 53 -106 152 -161 191 -78 56 -302 139 -464 173 -236 49 -413 46 -658
-11 -101 -23 -136 -28 -145 -19 -9 9 -9 16 1 31 10 16 9 21 -7 30 -11 5 -34 9
-53 9 -50 -2 -58 0 -58 14 0 12 22 29 72 54 24 12 26 17 16 33 -7 10 -31 23
-54 29 -28 7 -43 17 -47 31 -3 11 -11 20 -19 20 -7 0 -21 11 -31 25 -17 24
-17 24 25 53 44 30 87 72 74 72 -4 0 5 12 19 27 14 16 30 44 36 63 7 19 15 37
19 40 8 6 48 114 56 150 13 62 13 193 0 224 -18 44 -7 67 65 138 71 71 102
118 136 207 28 74 28 74 49 191 21 115 10 334 -17 351 -6 3 -9 8 -7 10 5 7
-54 142 -69 157 -7 7 -20 28 -29 47 -9 19 -20 35 -25 35 -5 0 -9 5 -9 11 0 17
-97 106 -193 176 -16 12 -73 41 -125 64 -53 23 -105 52 -114 65 -15 19 -26 22
-61 18 -58 -6 -141 13 -162 36 -19 21 -66 20 -92 -1 -12 -11 -41 -6 -80 13
-17 8 -33 7 -65 -5 -95 -35 -132 -32 -258 20 -57 23 -276 33 -337 14 -17 -5
-34 -7 -37 -3 -3 3 -6 0 -6 -6 0 -7 -3 -11 -7 -10 -15 5 -128 -67 -153 -96
-14 -16 -32 -37 -41 -45 -22 -22 -94 -157 -109 -206 -13 -41 -42 -80 -73 -96
-27 -15 -85 -20 -92 -9 -4 6 -11 7 -17 4 -6 -4 -14 0 -20 7 -6 9 -7 1 -4 -23
5 -34 3 -38 -19 -44 -36 -9 -105 28 -165 89 -78 78 -92 113 -95 237 -4 164 27
255 119 345 75 75 106 113 122 150 20 50 25 135 8 167 -13 25 -94 88 -114 88
-4 0 -10 3 -12 8 -10 23 -201 125 -213 114 -5 -4 -5 -1 -1 6 4 6 3 12 -1 12
-15 0 -39 54 -42 94 -7 103 -132 227 -314 311 -40 18 -84 36 -99 40 -14 4 -44
22 -65 41 -102 91 -369 171 -438 132z"/>
<path d="M6014 6426 c-18 -20 -34 -53 -28 -58 2 -3 6 -15 9 -27 3 -16 -4 -25
-28 -37 -41 -22 -86 -57 -145 -116 -58 -58 -84 -88 -76 -88 3 0 -7 -15 -22
-32 -36 -43 -81 -139 -95 -205 -10 -42 -10 -59 1 -81 25 -54 24 -98 -4 -135
-56 -73 -74 -173 -38 -214 43 -49 92 -54 167 -17 34 17 42 24 25 22 -20 -2
-25 1 -24 18 0 19 -2 20 -25 7 -14 -7 -31 -13 -37 -13 -20 0 -47 52 -47 89 -1
45 30 151 44 151 6 0 7 4 4 10 -3 5 6 16 21 22 16 7 38 23 51 36 12 12 26 22
31 22 18 0 45 -55 48 -96 4 -76 36 -111 114 -130 44 -10 54 -23 39 -53 -9 -20
28 -79 62 -96 32 -17 109 -20 109 -4 0 5 5 7 10 4 6 -3 10 -2 10 3 0 16 63 41
80 32 10 -5 26 1 50 21 19 16 40 29 47 29 15 0 55 21 64 34 4 4 33 9 64 10 47
1 60 -3 69 -18 6 -11 18 -26 26 -35 26 -28 10 -115 -35 -181 -18 -27 -32 -50
-30 -50 1 0 -12 -17 -31 -37 -19 -20 -32 -39 -29 -41 3 -3 -4 -11 -15 -19 -11
-8 -20 -20 -20 -28 0 -7 -4 -15 -8 -17 -5 -1 -22 -24 -40 -49 -17 -26 -50 -66
-72 -89 -22 -23 -40 -44 -40 -47 0 -8 32 20 97 82 28 27 84 79 124 115 104 92
169 159 169 171 0 5 4 8 8 5 5 -3 24 20 43 50 19 31 46 72 62 91 50 66 78 199
53 254 -37 79 -63 115 -104 142 -46 31 -45 27 -25 127 12 60 11 186 -2 216 -7
18 -11 35 -7 38 3 3 0 6 -6 6 -7 0 -11 3 -11 8 3 19 -3 32 -34 63 -35 36 -71
63 -87 65 -6 1 -11 2 -12 4 -8 6 -51 11 -111 11 -48 1 -74 6 -90 19 -33 26
-100 42 -129 31 -12 -5 -34 -19 -46 -31 -13 -13 -39 -26 -57 -30 -40 -9 -64
10 -67 53 -3 30 -8 33 -24 13z"/>
<path d="M5543 6118 c-41 -57 -47 -132 -12 -143 12 -4 26 -2 33 5 8 10 8 11
-1 6 -6 -3 -14 -2 -18 4 -11 18 -13 85 -3 98 6 6 7 12 3 12 -4 0 -2 7 5 15 7
8 10 15 7 15 -2 0 -9 -6 -14 -12z"/>
<path d="M6577 2103 c-10 -9 -9 -23 1 -23 5 0 9 7 9 15 0 17 -1 18 -10 8z"/>
<path d="M6291 2048 c-5 -13 -6 -28 -4 -35 5 -13 33 -6 33 8 0 4 7 6 15 3 16
-6 19 4 9 30 -9 24 -43 19 -53 -6z"/>
</g>
</svg>
