<?xml version="1.0" standalone="no"?>
<!DOCTYPE svg PUBLIC "-//W3C//DTD SVG 20010904//EN"
 "http://www.w3.org/TR/2001/REC-SVG-20010904/DTD/svg10.dtd">
<svg version="1.0" xmlns="http://www.w3.org/2000/svg"
 width="16.000000pt" height="16.000000pt" viewBox="0 0 16.000000 16.000000"
 preserveAspectRatio="xMidYMid meet">
<metadata>
Created by potrace 1.11, written by Peter Selinger 2001-2013
</metadata>
<g transform="translate(0.000000,16.000000) scale(0.004598,-0.004598)"
fill="#000000" stroke="none">
<path d="M1563 3421 c-39 -11 -86 -27 -105 -37 -90 -46 -979 -572 -1021 -603
-93 -69 -185 -214 -224 -351 -17 -60 -18 -114 -18 -705 0 -513 3 -649 14 -685
13 -42 14 -43 22 -21 5 13 30 134 55 270 58 317 85 436 124 543 32 88 85 185
122 225 62 67 184 83 276 37 66 -33 114 -88 162 -189 51 -108 76 -190 155
-520 37 -154 74 -305 83 -335 l16 -55 13 58 c7 32 40 215 73 407 78 459 99
551 177 795 68 210 135 310 248 366 201 99 388 -38 479 -352 100 -348 149
-860 127 -1326 -12 -263 -32 -459 -61 -603 -11 -52 -18 -95 -16 -97 2 -2 43
21 92 50 49 29 217 127 374 218 255 147 293 172 362 240 62 62 85 95 122 170
77 160 77 168 74 855 l-3 599 -27 80 c-37 109 -91 197 -168 275 -58 59 -116
96 -576 362 -289 168 -539 306 -575 319 -93 32 -277 36 -376 10z"/>
<path d="M1840 2095 c-38 -97 -99 -384 -160 -748 -79 -470 -122 -649 -189
-793 -60 -127 -128 -192 -225 -214 -114 -25 -221 48 -295 203 -57 117 -92 231
-177 577 -79 323 -82 335 -88 329 -2 -2 -23 -105 -46 -229 -46 -253 -77 -381
-119 -500 l-29 -82 30 -17 c16 -9 219 -126 451 -260 232 -134 443 -254 469
-267 66 -34 159 -54 250 -54 l77 0 29 78 c53 137 97 345 124 582 19 176 16
764 -5 964 -17 153 -58 392 -76 439 -9 21 -9 21 -21 -8z"/>
</g>
</svg>
